<svg width="25" height="25" viewBox="0 0 25 25" fill="none" xmlns="http://www.w3.org/2000/svg">
<path d="M22.96 6.5C22.19 6.85 21.36 7.08 20.5 7.19C21.38 6.66 22.06 5.82 22.38 4.81C21.55 5.31 20.63 5.66 19.66 5.86C18.87 5 17.76 4.5 16.5 4.5C14.15 4.5 12.23 6.42 12.23 8.79C12.23 9.13 12.27 9.46 12.34 9.77C8.78004 9.59 5.61004 7.88 3.50004 5.29C3.13004 5.92 2.92004 6.66 2.92004 7.44C2.92004 8.93 3.67004 10.25 4.83004 11C4.12004 11 3.46004 10.8 2.88004 10.5V10.53C2.88004 12.61 4.36004 14.35 6.32004 14.74C5.69077 14.9122 5.03013 14.9362 4.39004 14.81C4.66165 15.6625 5.19358 16.4084 5.91106 16.9429C6.62854 17.4775 7.49549 17.7737 8.39004 17.79C6.87367 18.9904 4.99404 19.6393 3.06004 19.63C2.72004 19.63 2.38004 19.61 2.04004 19.57C3.94004 20.79 6.20004 21.5 8.62004 21.5C16.5 21.5 20.83 14.96 20.83 9.29C20.83 9.1 20.83 8.92 20.82 8.73C21.66 8.13 22.38 7.37 22.96 6.5Z" fill="white"/>
</svg>
