<svg width="25" height="25" viewBox="0 0 25 25" fill="none" xmlns="http://www.w3.org/2000/svg">
<path d="M13.528 2.50099C14.2577 2.49819 14.9874 2.50552 15.717 2.52299L15.911 2.52999C16.135 2.53799 16.356 2.54799 16.623 2.55999C17.687 2.60999 18.413 2.77799 19.05 3.02499C19.71 3.27899 20.266 3.62299 20.822 4.17899C21.3303 4.67859 21.7238 5.28293 21.975 5.94999C22.222 6.58699 22.39 7.31399 22.44 8.37799C22.452 8.64399 22.462 8.86599 22.47 9.08999L22.476 9.28399C22.4937 10.0132 22.5014 10.7426 22.499 11.472L22.5 12.218V13.528C22.5024 14.2577 22.4948 14.9875 22.477 15.717L22.471 15.911C22.463 16.135 22.453 16.356 22.441 16.623C22.391 17.687 22.221 18.413 21.975 19.05C21.7246 19.7177 21.3311 20.3226 20.822 20.822C20.3219 21.3303 19.7173 21.7237 19.05 21.975C18.413 22.222 17.687 22.39 16.623 22.44C16.356 22.452 16.135 22.462 15.911 22.47L15.717 22.476C14.9874 22.4938 14.2577 22.5014 13.528 22.499L12.782 22.5H11.473C10.7432 22.5025 10.0135 22.4948 9.28397 22.477L9.08997 22.471C8.85258 22.4624 8.61524 22.4524 8.37797 22.441C7.31397 22.391 6.58797 22.221 5.94997 21.975C5.28265 21.7243 4.6782 21.3308 4.17897 20.822C3.67001 20.3223 3.27619 19.7175 3.02497 19.05C2.77797 18.413 2.60997 17.687 2.55997 16.623C2.54883 16.3857 2.53883 16.1484 2.52997 15.911L2.52497 15.717C2.50653 14.9875 2.4982 14.2577 2.49997 13.528V11.472C2.49718 10.7426 2.50451 10.0132 2.52197 9.28399L2.52897 9.08999C2.53697 8.86599 2.54697 8.64399 2.55897 8.37799C2.60897 7.31299 2.77697 6.58799 3.02397 5.94999C3.27534 5.28261 3.66993 4.67843 4.17997 4.17999C4.67886 3.67074 5.28293 3.27656 5.94997 3.02499C6.58797 2.77799 7.31297 2.60999 8.37797 2.55999L9.08997 2.52999L9.28397 2.52499C10.0132 2.50656 10.7426 2.49823 11.472 2.49999L13.528 2.50099ZM12.5 7.50099C11.8375 7.49162 11.1797 7.61401 10.5649 7.86105C9.95016 8.1081 9.39061 8.47486 8.91881 8.94004C8.44701 9.40522 8.07237 9.95952 7.81665 10.5707C7.56094 11.182 7.42926 11.8379 7.42926 12.5005C7.42926 13.163 7.56094 13.819 7.81665 14.4302C8.07237 15.0414 8.44701 15.5958 8.91881 16.0609C9.39061 16.5261 9.95016 16.8929 10.5649 17.1399C11.1797 17.387 11.8375 17.5094 12.5 17.5C13.826 17.5 15.0978 16.9732 16.0355 16.0355C16.9732 15.0978 17.5 13.8261 17.5 12.5C17.5 11.1739 16.9732 9.90213 16.0355 8.96445C15.0978 8.02677 13.826 7.50099 12.5 7.50099ZM12.5 9.50099C12.8985 9.49364 13.2944 9.56578 13.6648 9.71319C14.0351 9.8606 14.3723 10.0803 14.6567 10.3595C14.9412 10.6387 15.1671 10.9718 15.3214 11.3393C15.4757 11.7068 15.5552 12.1014 15.5552 12.5C15.5553 12.8986 15.4759 13.2931 15.3218 13.6607C15.1677 14.0283 14.9418 14.3614 14.6575 14.6407C14.3731 14.92 14.036 15.1399 13.6657 15.2874C13.2954 15.4349 12.8995 15.5072 12.501 15.5C11.7053 15.5 10.9423 15.1839 10.3796 14.6213C9.81704 14.0587 9.50097 13.2956 9.50097 12.5C9.50097 11.7043 9.81704 10.9413 10.3796 10.3787C10.9423 9.81606 11.7053 9.49999 12.501 9.49999L12.5 9.50099ZM17.75 6.00099C17.4274 6.0139 17.1223 6.15114 16.8986 6.38396C16.6749 6.61678 16.55 6.92712 16.55 7.24999C16.55 7.57285 16.6749 7.88319 16.8986 8.11601C17.1223 8.34884 17.4274 8.48607 17.75 8.49899C18.0815 8.49899 18.3994 8.36729 18.6339 8.13287C18.8683 7.89845 19 7.58051 19 7.24899C19 6.91747 18.8683 6.59952 18.6339 6.3651C18.3994 6.13068 18.0815 5.99899 17.75 5.99899V6.00099Z" fill="white"/>
</svg>
