<svg width="25" height="25" viewBox="0 0 25 25" fill="none" xmlns="http://www.w3.org/2000/svg">
<path d="M7.43994 5.50002C7.43968 6.03046 7.22871 6.53906 6.85345 6.91394C6.47819 7.28883 5.96937 7.49929 5.43894 7.49902C4.90851 7.49876 4.39991 7.28779 4.02502 6.91253C3.65014 6.53727 3.43968 6.02846 3.43994 5.49802C3.44021 4.96759 3.65117 4.45899 4.02644 4.0841C4.4017 3.70922 4.91051 3.49876 5.44094 3.49902C5.97137 3.49929 6.47998 3.71026 6.85486 4.08552C7.22975 4.46078 7.44021 4.96959 7.43994 5.50002ZM7.49994 8.98002H3.49994V21.5H7.49994V8.98002ZM13.8199 8.98002H9.83994V21.5H13.7799V14.93C13.7799 11.27 18.5499 10.93 18.5499 14.93V21.5H22.4999V13.57C22.4999 7.40002 15.4399 7.63002 13.7799 10.66L13.8199 8.98002Z" fill="white"/>
</svg>
